<svg 
 xmlns="http://www.w3.org/2000/svg"
 xmlns:xlink="http://www.w3.org/1999/xlink"
 width="25px" height="24px">
<path fill-rule="evenodd"  fill="rgb(67, 177, 44)"
 d="M4.316,24.001 L4.316,18.434 C1.567,16.437 -0.000,13.567 -0.000,10.496 C-0.000,4.709 5.607,-0.000 12.500,-0.000 C19.393,-0.000 25.000,4.709 25.000,10.496 C25.000,16.284 19.393,20.994 12.500,20.994 C11.683,20.994 10.861,20.925 10.051,20.789 L4.316,24.001 ZM12.500,1.691 C6.535,1.691 1.682,5.641 1.682,10.496 C1.682,13.130 3.118,15.604 5.624,17.289 L5.998,17.539 L5.998,21.123 L9.760,19.016 L10.058,19.074 C10.864,19.225 11.685,19.303 12.500,19.303 C18.465,19.303 23.318,15.352 23.318,10.496 C23.318,5.641 18.465,1.691 12.500,1.691 Z"/>
</svg>