<svg 
 xmlns="http://www.w3.org/2000/svg"
 xmlns:xlink="http://www.w3.org/1999/xlink"
 width="22px" height="24px">
<path fill-rule="evenodd"  fill="rgb(255, 255, 255)"
 d="M10.998,-0.000 C4.925,0.003 -0.000,4.865 -0.000,10.864 L-0.000,15.983 C-0.000,16.253 0.128,16.507 0.347,16.671 L5.077,20.214 L5.077,23.137 C5.077,23.614 5.467,24.000 5.951,24.000 L6.654,24.000 C7.138,24.000 7.529,23.614 7.529,23.137 L7.529,21.950 C7.529,21.648 7.777,21.404 8.083,21.404 L8.083,21.404 C8.389,21.404 8.637,21.648 8.637,21.950 L8.637,23.137 C8.637,23.614 9.027,24.000 9.512,24.000 L9.541,24.000 C10.025,24.000 10.415,23.614 10.415,23.137 L10.415,21.950 C10.415,21.648 10.663,21.404 10.969,21.404 L11.028,21.404 C11.334,21.404 11.582,21.648 11.582,21.950 L11.582,23.137 C11.582,23.614 11.972,24.000 12.456,24.000 L12.486,24.000 C12.970,24.000 13.360,23.614 13.360,23.137 L13.360,21.950 C13.360,21.648 13.608,21.404 13.914,21.404 L13.914,21.404 C14.221,21.404 14.468,21.648 14.468,21.950 L14.468,23.137 C14.468,23.614 14.859,24.000 15.343,24.000 L16.049,24.000 C16.533,24.000 16.923,23.614 16.923,23.137 L16.923,20.212 L21.653,16.668 C21.872,16.504 22.000,16.250 22.000,15.980 L22.000,10.861 C21.997,4.865 17.072,0.003 10.998,-0.000 ZM6.400,16.066 C4.727,16.066 3.368,14.724 3.368,13.072 C3.368,11.420 4.727,10.079 6.400,10.079 C8.074,10.079 9.433,11.420 9.433,13.072 C9.433,14.727 8.074,16.066 6.400,16.066 ZM11.862,18.268 L10.138,18.268 C9.739,18.268 9.485,17.845 9.678,17.499 L10.541,15.954 C10.739,15.597 11.261,15.597 11.459,15.954 L12.322,17.499 C12.512,17.845 12.258,18.268 11.862,18.268 ZM15.597,16.066 C13.923,16.066 12.564,14.724 12.564,13.072 C12.564,11.420 13.923,10.079 15.597,10.079 C17.270,10.079 18.629,11.420 18.629,13.072 C18.629,14.727 17.273,16.066 15.597,16.066 Z"/>
</svg>