<svg 
 xmlns="http://www.w3.org/2000/svg"
 xmlns:xlink="http://www.w3.org/1999/xlink"
 width="60px" height="62px">
<defs>
<linearGradient id="PSgrad_0" x1="100%" x2="0%" y1="0%" y2="0%">
  <stop offset="0%" stop-color="rgb(250,183,119)" stop-opacity="1" />
  <stop offset="100%" stop-color="rgb(247,202,106)" stop-opacity="1" />
</linearGradient>

</defs>
<path fill-rule="evenodd"  fill="rgb(0, 0, 0)"
 d="M59.416,48.801 L54.787,22.805 C53.829,17.424 49.137,13.518 43.631,13.518 L37.083,13.518 C38.073,12.122 38.656,10.422 38.656,8.590 C38.656,3.852 34.773,0.000 30.000,0.000 C25.227,0.000 21.344,3.852 21.344,8.590 C21.344,10.422 21.927,12.122 22.917,13.518 L16.369,13.518 C10.863,13.518 6.171,17.424 5.213,22.805 L0.584,48.801 C-0.000,52.083 0.903,55.430 3.061,57.983 C5.219,60.535 8.383,61.999 11.741,61.999 L48.259,61.999 C51.618,61.999 54.781,60.535 56.939,57.983 C59.097,55.430 60.000,52.083 59.416,48.801 ZM30.000,3.659 C32.739,3.659 34.968,5.871 34.968,8.590 C34.968,11.308 32.739,13.518 30.000,13.518 C27.261,13.518 25.032,11.308 25.032,8.590 C25.032,5.871 27.261,3.659 30.000,3.659 ZM54.113,55.630 C52.658,57.352 50.524,58.340 48.259,58.340 L11.741,58.340 C9.476,58.340 7.342,57.352 5.887,55.630 C4.432,53.908 3.823,51.652 4.217,49.439 L8.845,23.441 C9.491,19.813 12.656,17.179 16.369,17.179 L43.631,17.179 C47.345,17.179 50.509,19.813 51.155,23.441 L55.783,49.439 C56.177,51.652 55.568,53.908 54.113,55.630 Z"/>
<path fill="url(#PSgrad_0)"
 d="M59.416,48.801 L54.787,22.805 C53.829,17.424 49.137,13.518 43.631,13.518 L37.083,13.518 C38.073,12.122 38.656,10.422 38.656,8.590 C38.656,3.852 34.773,0.000 30.000,0.000 C25.227,0.000 21.344,3.852 21.344,8.590 C21.344,10.422 21.927,12.122 22.917,13.518 L16.369,13.518 C10.863,13.518 6.171,17.424 5.213,22.805 L0.584,48.801 C-0.000,52.083 0.903,55.430 3.061,57.983 C5.219,60.535 8.383,61.999 11.741,61.999 L48.259,61.999 C51.618,61.999 54.781,60.535 56.939,57.983 C59.097,55.430 60.000,52.083 59.416,48.801 ZM30.000,3.659 C32.739,3.659 34.968,5.871 34.968,8.590 C34.968,11.308 32.739,13.518 30.000,13.518 C27.261,13.518 25.032,11.308 25.032,8.590 C25.032,5.871 27.261,3.659 30.000,3.659 ZM54.113,55.630 C52.658,57.352 50.524,58.340 48.259,58.340 L11.741,58.340 C9.476,58.340 7.342,57.352 5.887,55.630 C4.432,53.908 3.823,51.652 4.217,49.439 L8.845,23.441 C9.491,19.813 12.656,17.179 16.369,17.179 L43.631,17.179 C47.345,17.179 50.509,19.813 51.155,23.441 L55.783,49.439 C56.177,51.652 55.568,53.908 54.113,55.630 Z"/>
</svg>